<svg id="Layer_1" data-name="Layer 1" xmlns="http://www.w3.org/2000/svg" viewBox="0 0 299.7586 243.1724"><defs><style>.cls-1{fill:#ffa580;stroke:#000;stroke-miterlimit:10;stroke-width:0.5px;}</style></defs><path class="cls-1" d="M252.9768,99.051H234.8322l-75.3281-73.4a9.9193,9.9193,0,1,0-19.1538-.004L64.9343,99.051H46.7819a7.764,7.764,0,0,0-7.7636,7.7647V222.221a7.764,7.764,0,0,0,7.7636,7.7646H252.9768a7.764,7.764,0,0,0,7.7636-7.7646V106.8157A7.764,7.764,0,0,0,252.9768,99.051ZM99.7888,205.83H86.1335V181.0257H77.902V205.83H64.41V143.9426H77.902v23.9141h8.2315V143.9426H99.7888Zm44.18-49.4482H124.5949v11.88h15.3194v12.6015H124.5949v11.96h19.3736V205.83H111.02V143.9426h32.9483ZM190.2521,205.83h-33.92V143.9426h13.4922v48.8809h20.4277Zm42.4571-25.4189c-3.1328,3.5811-7.961,5.3975-14.3457,5.3975H213.842V205.83H200.35V143.9426h18.1738a20.2638,20.2638,0,0,1,8.0352,1.5059,16.4233,16.4233,0,0,1,5.9492,4.2988,18.6491,18.6491,0,0,1,3.6328,6.586,27.3712,27.3712,0,0,1,1.209,8.38C237.35,171.61,235.7873,176.8909,232.7092,180.4114Zm8.832-60.5723a7.4109,7.4109,0,0,1-4.66-13.1884l-17.5254-7.6H81.3835l-18.0078,8.0977a7.3794,7.3794,0,1,1-12.5449,5.2637c0-6.77,8.2363-9.6065,12.3671-5.4434.0137.0117.0235.0254.0372.0361l8.2187-7.9541,71.3516-69.0537a9.8868,9.8868,0,0,0,14.2807-.04L229.2775,99.051l7.7832,7.45c.0332-.0254.0645-.0546.1-.081,5.8242-3.7012,11.81.5078,11.81,5.9922A7.4281,7.4281,0,0,1,241.5412,119.8391Z"/><path class="cls-1" d="M218.1467,156.4641H213.842V172.802h4.3047c3.0117,0,6.4668-.9385,6.4668-8.251,0-2.9121-.5235-5.0361-1.5586-6.3154C222.0881,157.0442,220.4826,156.4641,218.1467,156.4641Z"/></svg>