<svg id="Layer_1" data-name="Layer 1" xmlns="http://www.w3.org/2000/svg" viewBox="0 0 338.8624 178.5406"><defs><style>.cls-1{fill:#ffa680;}.cls-1,.cls-2,.cls-3,.cls-4{stroke:#000;stroke-miterlimit:10;stroke-width:2px;}.cls-2{fill:#93ffc1;}.cls-3{fill:#95a5ff;}.cls-4{fill:#fff6af;}</style></defs><circle class="cls-1" cx="41.598" cy="42.7812" r="11.5552"/><circle class="cls-2" cx="41.598" cy="74.2659" r="11.5552"/><circle class="cls-3" cx="41.598" cy="104.8337" r="11.5552"/><circle class="cls-4" cx="41.598" cy="135.7593" r="11.5552"/><path class="cls-1" d="M74.262,44.43H92.009l8.6114,34.707q1.3651,5.7767,2.1533,11,.7866,5.2251,1.5225,9.8452h.42q.7338-4.62,1.5224-9.8452t2.1534-11l8.873-34.707h17.38v89.6816h-12.707V104.4446q0-6.8247.1318-13.1265T122.41,79.74q.21-5.2764.4727-9.32t.4726-6.4058h-.997l-13.5469,58.545H100.2L86.5481,64.0144H85.551q.21,2.3628.4727,6.4058t.4726,9.32q.21,5.2772.3409,11.5781t.1318,13.1265v29.6665H74.262Z"/><path class="cls-2" d="M172.1907,134.8987a35.0382,35.0382,0,0,1-4.6729-.3413,18.1805,18.1805,0,0,1-4.9882-1.4438,18.2778,18.2778,0,0,1-8.795-8.4537,31.6928,31.6928,0,0,1-2.81-8.165,55.4726,55.4726,0,0,1-1.05-11.5776V73.1507a53.7128,53.7128,0,0,1,1.0761-11.5777,31.2318,31.2318,0,0,1,2.8614-8.0864,18.1428,18.1428,0,0,1,4.0693-5.2241,17.854,17.854,0,0,1,4.7783-2.9668,19.5574,19.5574,0,0,1,4.9619-1.3389,36.2725,36.2725,0,0,1,4.5684-.3149,38.2179,38.2179,0,0,1,4.4365.2885,19.3418,19.3418,0,0,1,4.8838,1.26,17.7854,17.7854,0,0,1,4.7519,2.8877,17.5587,17.5587,0,0,1,4.0948,5.1982,31.2355,31.2355,0,0,1,2.8623,8.1387,55.1129,55.1129,0,0,1,1.0762,11.7354v31.7666a51.8952,51.8952,0,0,1-1.1026,11.4726,32.8824,32.8824,0,0,1-2.8877,8.1387,18.57,18.57,0,0,1-4.1221,5.3559,20.4748,20.4748,0,0,1-4.7783,3.15,18.0139,18.0139,0,0,1-4.8564,1.4961A29.2987,29.2987,0,0,1,172.1907,134.8987Zm0-10.2388a8.3372,8.3372,0,0,0,3.4912-.6826,5.51,5.51,0,0,0,2.4687-2.3628,13.8941,13.8941,0,0,0,1.47-4.437,40.1982,40.1982,0,0,0,.499-6.957V69.4226a43.38,43.38,0,0,0-.499-7.1933,15.03,15.03,0,0,0-1.47-4.647,5.7611,5.7611,0,0,0-2.4687-2.4941,7.83,7.83,0,0,0-3.4912-.7349,8.13,8.13,0,0,0-3.57.7349,5.85,5.85,0,0,0-2.52,2.4941,14.4891,14.4891,0,0,0-1.4961,4.647,43.27,43.27,0,0,0-.4991,7.1933v40.7979a40.0974,40.0974,0,0,0,.4991,6.957,13.401,13.401,0,0,0,1.4961,4.437,5.6035,5.6035,0,0,0,2.52,2.3628A8.66,8.66,0,0,0,172.1907,124.66Z"/><path class="cls-3" d="M209.5256,44.43h13.7569q3.044,0,6.3008.21a42.1821,42.1821,0,0,1,6.3535.8926,26.8679,26.8679,0,0,1,5.8808,2.0215,15.9063,15.9063,0,0,1,4.8565,3.5967,16.7564,16.7564,0,0,1,3.3086,5.5918,23.16,23.16,0,0,1,1.2334,8.0073v4.3584a20.16,20.16,0,0,1-1.0235,6.5635,19.5036,19.5036,0,0,1-2.7041,5.2768,16.3727,16.3727,0,0,1-3.833,3.78,12.8107,12.8107,0,0,1-4.4111,2.0215v.42A14.577,14.577,0,0,1,249.3,93.4969q3.3867,5.12,3.3867,13.1v4.5684a29.7136,29.7136,0,0,1-1.0772,8.48,19.0282,19.0282,0,0,1-3.0185,6.1435,16.6471,16.6471,0,0,1-4.6211,4.1744,23.9712,23.9712,0,0,1-5.8809,2.5463,37.3944,37.3944,0,0,1-6.8252,1.26q-3.624.342-7.456.3413H209.5256Zm15.962,38.3823a17.8166,17.8166,0,0,0,4.9882-.6563,10.091,10.091,0,0,0,3.8594-2.0478,9.0111,9.0111,0,0,0,2.4678-3.6231,14.8987,14.8987,0,0,0,.8662-5.3818V67.4275a22.1536,22.1536,0,0,0-.63-5.5659,10.0847,10.0847,0,0,0-2.0742-4.0957,9.0018,9.0018,0,0,0-3.78-2.5464,16.4638,16.4638,0,0,0-5.6972-.8662h-2.625V82.8118Zm1.2607,41.8481a16.3435,16.3435,0,0,0,4.9619-.7089,9.9405,9.9405,0,0,0,3.833-2.2051,9.8392,9.8392,0,0,0,2.4678-3.8072,15.5522,15.5522,0,0,0,.8662-5.46v-6.9834a22.4666,22.4666,0,0,0-.63-5.5918,9.88,9.88,0,0,0-2.0742-4.0957,9.14,9.14,0,0,0-3.7549-2.52,16.2353,16.2353,0,0,0-5.67-.8662h-3.8857V124.66Z"/><path class="cls-4" d="M286.7141,134.8987a35.038,35.038,0,0,1-4.6728-.3413,18.18,18.18,0,0,1-4.9883-1.4438,18.2771,18.2771,0,0,1-8.7949-8.4537,31.6889,31.6889,0,0,1-2.81-8.165,55.4726,55.4726,0,0,1-1.05-11.5776V73.1507a53.7058,53.7058,0,0,1,1.0762-11.5777,31.2356,31.2356,0,0,1,2.8613-8.0864,18.1446,18.1446,0,0,1,4.0693-5.2241,17.8571,17.8571,0,0,1,4.7783-2.9668,19.5592,19.5592,0,0,1,4.962-1.3389,36.271,36.271,0,0,1,4.5683-.3149,38.2179,38.2179,0,0,1,4.4365.2885,19.3408,19.3408,0,0,1,4.8838,1.26,17.7843,17.7843,0,0,1,4.752,2.8877,17.5585,17.5585,0,0,1,4.0947,5.1982,31.2355,31.2355,0,0,1,2.8623,8.1387A55.1129,55.1129,0,0,1,308.82,73.1507v31.7666a51.9017,51.9017,0,0,1-1.1025,11.4726,32.8905,32.8905,0,0,1-2.8877,8.1387,18.5738,18.5738,0,0,1-4.1221,5.3559,20.479,20.479,0,0,1-4.7783,3.15,18.0156,18.0156,0,0,1-4.8565,1.4961A29.2987,29.2987,0,0,1,286.7141,134.8987Zm0-10.2388a8.3369,8.3369,0,0,0,3.4912-.6826,5.51,5.51,0,0,0,2.4688-2.3628,13.8943,13.8943,0,0,0,1.47-4.437,40.1982,40.1982,0,0,0,.499-6.957V69.4226a43.38,43.38,0,0,0-.499-7.1933,15.03,15.03,0,0,0-1.47-4.647,5.7613,5.7613,0,0,0-2.4688-2.4941,7.83,7.83,0,0,0-3.4912-.7349,8.13,8.13,0,0,0-3.57.7349,5.8515,5.8515,0,0,0-2.5205,2.4941,14.4915,14.4915,0,0,0-1.4961,4.647,43.2717,43.2717,0,0,0-.499,7.1933v40.7979a40.0987,40.0987,0,0,0,.499,6.957,13.4033,13.4033,0,0,0,1.4961,4.437,5.6044,5.6044,0,0,0,2.5205,2.3628A8.6606,8.6606,0,0,0,286.7141,124.66Z"/></svg>