<svg id="Layer_1" data-name="Layer 1" xmlns="http://www.w3.org/2000/svg" viewBox="0 0 199.156 178.5406"><defs><style>.cls-1{fill:#ffa580;stroke-width:2px;}.cls-1,.cls-2,.cls-3,.cls-4{stroke:#000;stroke-miterlimit:10;}.cls-2{fill:#fff5ae;}.cls-2,.cls-3,.cls-4{stroke-width:0.5px;}.cls-3{fill:#92ffc0;}.cls-4{fill:#94a4ff;}.cls-5{fill:#472b29;}.cls-6{fill:#553831;}.cls-7{fill:#87ccd6;}.cls-8{fill:#bd7741;}.cls-9{fill:#e6c5a9;}.cls-10{fill:#694437;}.cls-11{fill:#eac8aa;}.cls-12{fill:#fbd8ba;}.cls-13{fill:#dab9a0;}.cls-14{fill:#967769;}.cls-15{fill:#fcdabb;}.cls-16{fill:#f7bd81;}.cls-17{fill:#7c5f55;}.cls-18{fill:#573934;}.cls-19{fill:#735246;}.cls-20{fill:#6e493b;}.cls-21{fill:#755040;}.cls-22{fill:#4f302a;}.cls-23{fill:#875b41;}.cls-24{fill:#835f4e;}.cls-25{fill:#ab8262;}.cls-26{fill:#ac8364;}.cls-27{fill:#714c46;}.cls-28{fill:#724e47;}.cls-29{fill:#613d39;}.cls-30{fill:#603b38;}.cls-31{fill:#b89582;}.cls-32{fill:#7a554d;}.cls-33{fill:#4e312e;}.cls-34{fill:#977366;}.cls-35{fill:#06a6a7;}.cls-36{fill:#23afb2;}</style></defs><ellipse class="cls-1" cx="94.2579" cy="93.2812" rx="73.6005" ry="74.0709"/><path class="cls-2" d="M159.828,15.2754a7.9245,7.9245,0,1,1-7.8451,7.8677A7.9512,7.9512,0,0,1,159.828,15.2754Z"/><path class="cls-2" d="M22.7571,110.7119c4.3369-.3616,7.9371.8512,9.4479,5.2776,1.3893,4.0706-.033,7.3822-3.6117,9.7568q-8.4651,2.2755-11.1578-4.0209C15.5673,117.3772,17.31,113.7714,22.7571,110.7119Z"/><path class="cls-2" d="M155.88,140.5273c2.3.2734,3.81,1.4913,3.9107,3.73a3.6423,3.6423,0,0,1-3.8817,4.102,3.5766,3.5766,0,0,1-3.8557-3.6332C151.9284,142.1979,153.5187,140.9076,155.88,140.5273Z"/><path class="cls-3" d="M167.7551,45.0764c-2.2235-.4074-3.7838-1.5652-3.7869-3.868A3.6761,3.6761,0,0,1,167.992,37.21a3.582,3.582,0,0,1,3.7434,3.77C171.7867,43.5129,170.1578,44.77,167.7551,45.0764Z"/><path class="cls-3" d="M44.4092,162.3939c2.3627.1582,3.8754,1.4018,4.06,3.6093a3.6632,3.6632,0,0,1-3.7641,4.2423,3.5943,3.5943,0,0,1-3.9892-3.52C40.5009,164.1982,42.0729,162.8536,44.4092,162.3939Z"/><path class="cls-3" d="M20.6407,55.0185c-2.2235-.4075-3.7838-1.5653-3.7869-3.868a3.6761,3.6761,0,0,1,4.0238-3.9983,3.582,3.582,0,0,1,3.7434,3.77C24.6723,53.455,23.0434,54.7119,20.6407,55.0185Z"/><path class="cls-2" d="M147.8728,17.36a1.8025,1.8025,0,0,1,1.9226,1.7494,1.83,1.83,0,1,1-3.6524.2331C146.0411,18.1955,146.77,17.59,147.8728,17.36Z"/><path class="cls-4" d="M36.6226,99.9153c-.4269,2.8068-1.9635,4.684-4.8537,4.693-3.1211.01-5.0379-1.894-4.94-5.0066.0976-3.1108,2.1331-4.9132,5.241-4.6971C34.9218,95.1029,36.3967,97.0452,36.6226,99.9153Z"/><path class="cls-4" d="M154.1078,59.2534c.8714.2776,1.543.7586,1.51,1.7a1.6187,1.6187,0,0,1-1.9084,1.7078,1.5738,1.5738,0,0,1-1.4852-1.6516A1.714,1.714,0,0,1,154.1078,59.2534Z"/><path class="cls-2" d="M38.4128,126.4512a1.7487,1.7487,0,0,1-1.7254,1.881,1.7481,1.7481,0,0,1-.3337-3.4727C37.4562,124.6453,38.1314,125.3482,38.4128,126.4512Z"/><path d="M133.2875,135.0085c-.1519-2.8242-.5737-5.5858-3.2368-7.3267h0v0c-1.9344-2.7365-4.8743-3.0371-7.8533-3.243v0a51.2945,51.2945,0,0,0-13.0327-5.6009,1.3259,1.3259,0,0,1-.55.2278q.2751-.114.55-.2278c-4.7732-.44-4.9695-3.3993-3.8872-7.063,5.594-2.667,7.7812-7.8872,9.8733-13.1786,4.2788-2.25,7.9721-10.03,6.8645-14.48-.23-.9217-.9969-1.2225-1.7967-1.4645-.479-1.7137-4.5185-1.8106-2.18-4.8037q.0963-.8674.1931-1.735a11.6022,11.6022,0,0,0,.0327-8.523l0-.0038a12.8665,12.8665,0,0,1,.6535-9.764c.9463-2.1662,1.0662-4.4855-1.5952-5.85-1.5959-.9148-3.4338-.0163-5.0637-.6755-2.709-1.3041-5.6524-2.2734-8.0811-3.977-6.45-4.5242-12.9895-4.405-19.8051-1.1791l-9.03,3.7452c-4.0161,2.2812-6.822,5.494-7.7871,10.1231-2.1514,5.59-1.3843,11.2734.1133,16.7422.7727,2.8219.0424,3.99-2.2762,4.9087l0,.0005c-4.3511,5.0692-.648,9.5327,1.0637,14.146a20.2919,20.2919,0,0,1,5.9187,8.0761,12.3083,12.3083,0,0,0,3.9744,4.9226,1.7909,1.7909,0,0,0,1.3945-1.3579c-.5818-2.2276-1.2654-4.3655-3.9944-4.77.0188-.045.0447-.0823.0618-.1293a11.2914,11.2914,0,0,0-.7547-4.6394A4.4768,4.4768,0,0,0,71.8,96.3614c-1.2507-.6969-2.3254-1.8233-3.9179-1.6546a2.6336,2.6336,0,0,0,.2048-.4711,28.5933,28.5933,0,0,0-2.47-11.0444,3.2415,3.2415,0,0,0,2.16.2685c1.6374-.5105,3.1555-1.1417,3.354-3.17-1.2488-6.2358-1.0623-12.602-1.75-18.8844-.0864-.19-.1748-.3773-.2734-.5511,3.2495-2.5846,4.8156-6.5417,7.5918-9.5094A2.2335,2.2335,0,0,0,76.63,51.13c3.7.723,6.6958-.1424,8.6062-3.457a4.4192,4.4192,0,0,0,.4334.1972c8.3606-1.3505,16.0629.1244,23.0029,5.17,1.3484.98,3.0974,1.0966,4.7292,1.3816,1.7525.306,2.7781,1.2988,2.2412,3.1131-1.8134,6.1313.5616,12.1469.3936,18.22.0586.1753.1133.3538.17.5308-2.1621,1.8851-2.2964,4.153-.5752,6.7672a5.5373,5.5373,0,0,0,3.565,1.1623,48.9316,48.9316,0,0,1-1.68,6.642c-.596,1.3007-1.3032,2.5394-1.9795,3.7992a12.9836,12.9836,0,0,1-1.4536,1.8073,1.8155,1.8155,0,0,0-.26,1.1123c.0083.024.0244.0378.0337.0606a1.1081,1.1081,0,0,0-1.0593.1283c-2.2737,4.6875-5.7207,8.544-8.885,12.5965a2.0572,2.0572,0,0,0,.0874.2535,1.87,1.87,0,0,0-2.1455,1.33,15.9574,15.9574,0,0,0,.3994,4.3507c.904,2.1324,1.6367,4.4964,4.82,3.409l.0764-.0316a1.2379,1.2379,0,0,0-.1648.4663,3.2951,3.2951,0,0,0,2.0527,1.88c4.3711,1.3581,8.241,4.4667,13.2,3.76.0122-.0166.0159-.0329.0271-.0494,1.5718,2.3816,3.8625,3.157,6.6189,2.8917a1.9573,1.9573,0,0,0-.2249.82,87.6507,87.6507,0,0,1,1.83,12.56c.46,5.2289,1.15,10.6238-2.27,15.3108-.0127-.0178-.021-.0354-.0344-.0532-3.4914-.7278-6.35,1.6158-9.6072,1.9952-.5117.121-1.0256.25-1.5239.42a81.3966,81.3966,0,0,1-24.2944,3.3276c-7.0986-.2111-13.9348-2.1756-20.9671-2.6986-.1445.0357-.291.0691-.4367.1032-.6348-1.24-2.22-1.3183-3.3-2.0079-.8747-.3862-1.7463-.7829-2.654-1.0853-1.2791-.333-2.5637-.9082-3.8032-.1491l.0307-.2011c-1.23-2.3265-2.9355-3.826-5.6643-3.549a26.3985,26.3985,0,0,1-.8652-10.1231c.7048-4.8561,1.29-9.7278,2.97-14.3759-.0146-.0726-.0324-.1414-.05-.2108,1.8579.0805,2.9773-1.0283,3.7669-2.665a1.7422,1.7422,0,0,0-.0791-.3206l.0127.0113a2.4308,2.4308,0,0,0,3.3269-.7014,5.691,5.691,0,0,0,.625.21c3.5451-.1393,6.6079-1.7119,9.6838-3.2374a1.1949,1.1949,0,0,0,.283-.9512c5.2553.28,6.2661-.6485,8.9289-8.0186.0074-2.6251-1.851-3.2627-3.9109-3.6839a1.998,1.998,0,0,0-1.499,1.4764c4.1738,5.6741-1.4743,6.5993-4.2969,8.8908a33.464,33.464,0,0,0-11.5415,3.8086A3.4814,3.4814,0,0,0,60.52,124.65a6.1369,6.1369,0,0,0-4.0142,2.9315c-3.134,2.243-3.6992,5.6967-4.0183,9.1148-.489,5.2385-.6943,10.5035-1.02,15.7573a3.8343,3.8343,0,0,0,2.7866,2.1167,17.847,17.847,0,0,0,7.09,4.2464v0c2.61,1.384,5.0035,3.2748,8.12,3.4757h0a68.7173,68.7173,0,0,0,6.5649,2.0856c17.878,3.8338,35.2728,2.448,52.0662-5.0393,2.0191-1.1354,4.6763-.9626,6.2334-3.0409C133.985,149.203,133.6693,142.104,133.2875,135.0085Z"/><path class="cls-5" d="M76.3483,108.8054l1.221-1.1818c1.6994-.16,2.5627.6905,2.789,2.31l-1.2016.89A3.036,3.036,0,0,1,76.3483,108.8054Z"/><path class="cls-6" d="M117.3219,51.9725c-1.705-.0973-3.519.6228-5.0638-.6756C113.9466,51.5178,115.7413,50.9424,117.3219,51.9725Z"/><path class="cls-7" d="M61.7188,125.73l3.7316-1.2642,10.0813-3.2424a15.8555,15.8555,0,0,1,7.1486,1.6994,23.12,23.12,0,0,0,20.5478-.3017,14.303,14.303,0,0,1,6.157-1.6177l12.7438,4.5375,6.8655,3.0739c4.0183,8.1961,2.5749,17.0639,3.049,25.6791.125,2.2721-2.6052,2.1318-3.948,3.1953l-8.8277,2.7886c-1.2934-2.3077-.1922-4.832-.6315-6.9675-.2445,2.2434.541,4.7986-.4957,7.238-14.5711,5.2616-29.298,4.5839-44.1,1.1678-.7954-.1836-1.6115-.2775-2.4177-.4133q-2.1529-1.035-4.3064-2.07a7.1031,7.1031,0,0,1-.8156-4.4287c-.1609,1.3539.1366,2.6845-1.11,3.5065q-1.8817-.6729-3.7634-1.3467-3.0487-1.7574-6.0977-3.5126c-.5845-.7578-1.6937-1.5306-1.6725-2.271.2188-7.657-.7713-15.5421,3.69-22.5063Z"/><path class="cls-8" d="M117.0254,75.65c-.7527,2.2815-2.4959,4.43-.9405,7.0209a1.602,1.602,0,0,1-2.0325,1.4113,2.6258,2.6258,0,0,1-1.348-2.3049,33.2424,33.2424,0,0,0,.2673-4.62,10.2015,10.2015,0,0,0-.48-3.0643,7.9547,7.9547,0,0,0-1.4606-3.2384c-1.4848-1.1924-2.63-.0759-3.8437.5634a5.1366,5.1366,0,0,1-1.9662.3223c-3.3443.6275-6.6755-.7686-10.0187-.0369-4.2714.18-8.0079-1.4712-11.551-3.5753-1.78-1.0571-3.4332-1.9564-5.4644-.791a2.9541,2.9541,0,0,0-2.1731,2.9484,8.7513,8.7513,0,0,1-1.0558,2.5014,17.6955,17.6955,0,0,0-1.5425,4.6761c-.41,1.4565-.45,3.4679-2.8641,3.2473-2.5555-6.2992-2.199-12.8866-1.9236-19.4641,1.9818-3.8943,3.9384-7.8093,7.9333-10.128,3.1307-1.0044,6.38-1.7395,8.9652-3.9753,8.0138-2.4972,15.35-1.0206,22.0349,3.8852a10.4081,10.4081,0,0,0,6.93,2.143c2.0249-.1019,3.6475,1.0209,2.8288,2.8919C114.4481,62.6258,117.8867,69.1494,117.0254,75.65Z"/><path class="cls-9" d="M71.4422,96.7982c-1.6247-.0217-2.5336-1.3423-3.7657-2.0762-1.0728-3.8441-2.8216-7.5643-2.15-11.7283l1.9558-.3449c1.6011-.2677,3.194-.7475,4.8255-.1888a2.5554,2.5554,0,0,1,.7445,2.7673c-.4359,1.1232-1.4374,1.0457-2.5177,1.0893-.5242-.0237.1836.9952.0493.3533-.0288-.1376.51-.2706.8429-.2687a1.8081,1.8081,0,0,1,1.61.82,6.93,6.93,0,0,1,.3115,4.4636C72.6809,93.3767,72.9767,95.4314,71.4422,96.7982Z"/><path class="cls-10" d="M72.4057,82.8l-4.9232-.1516q1.5339-.9687,3.0682-1.9382c2.9895-2.1945.7148-6.6739,3.8262-8.8145C76.1033,75.9619,74.86,79.4906,72.4057,82.8Z"/><path class="cls-11" d="M114.2843,83.6352q.9021-.4817,1.8024-.9638a6.0135,6.0135,0,0,1,3.9526,1.4162,14.9745,14.9745,0,0,1-1.79,7.9241,3.6691,3.6691,0,0,1-1.7777-2.3182c.7471-2.4141-.6046-3.4451-2.6607-4.0164A1.7945,1.7945,0,0,1,114.2843,83.6352Z"/><path class="cls-12" d="M117.35,89.8557l.9,2.1558q-1.1739,1.8077-2.348,3.615c-3.3585-1.6255-1.7241-4.4083-1.5944-6.84C116.6725,85.2582,116.1573,90.002,117.35,89.8557Z"/><path class="cls-13" d="M115.16,87.8048c.4034,2.5924-.7265,5.33.7413,7.8217-.2256.9118-1.0183.9354-1.7214,1.0993-1.62-1.5405-1.2171-3.5592-1.3026-5.4656a5.9481,5.9481,0,0,1,.84-3.1522A1.09,1.09,0,0,1,115.16,87.8048Z"/><path class="cls-14" d="M114.1789,90.8023q0,2.9619.001,5.9236-.0566.501-.1139,1.0019a6.8989,6.8989,0,0,0-.76.1007C111.5732,95.2349,110.59,92.7344,114.1789,90.8023Z"/><path class="cls-15" d="M114.1789,90.8023c-2.0024,2.1293-.525,4.6912-.8731,7.0262a25.0793,25.0793,0,0,1-9.209,12.7979l-1.7947,1.2418a12.0579,12.0579,0,0,1-2.7155,3.0037,8.3129,8.3129,0,0,1-4.5825,1.962,15.7445,15.7445,0,0,1-5.22-.2968c-2.0314-.9173-4.3757-1.4068-5.3321-3.8247a7.4349,7.4349,0,0,0-4.0941-2.7787l-2.789-2.31q-1.9408-2.48-3.8815-4.96c-1.5346-1.3172-.9405-3.246-1.3992-4.8724a9.8486,9.8486,0,0,1,.0739-5.85q.0078-2.5974.0157-5.1947-.4815-.3775-.2807-.6926.19-.2989.3716-.2993-.0317-1.4768-.0634-2.9536.9856-5.4519,1.9713-10.904.52-1.0323,1.04-2.0641c.4383-1.0967.7381-2.2848,1.9118-2.8958,1.7472-1.9,3.6049-2.8188,5.799-.6392,3.4057,3.3833,7.8989,3.7989,12.2842,4.511,3.2771.252,6.5485.9474,9.84.1295l2.0041-.2082c1.053-1.444,2.4435-1.536,3.9914-.9977a11.3619,11.3619,0,0,1,1.7123,4.81c.2159.9614.4246,1.9245.6822,2.8766-.0808,1.473.3211,2.9808-.3214,4.4123q.4814.9035.9632,1.8057-.0726,1.0211-.1462,2.0447c-.052.6775.6229,1.2971.16,2.0073Z"/><path class="cls-16" d="M84.4524,112.7124c1.631,1.0172,3.7039,1.3147,4.9131,3.0187a8.1971,8.1971,0,0,0,5.8791-.0348,5.926,5.926,0,0,0,4.1024-2.1146c2.504-1.3155,3.2426.34,3.818,2.27.2056,2.398,1.6147,3.5746,3.9085,3.8532q1.1537.6489,2.31,1.2984c-11.2349,7.4878-22.5256,6.82-33.8535.2228a5.5687,5.5687,0,0,1-.0042-.5762c3.7626-.5606,7.0875-1.5876,6.951-6.3955C82.4375,112.8793,83.4805,112.8257,84.4524,112.7124Z"/><path class="cls-17" d="M72.3625,91.9406q-.0369,2.9251-.0739,5.85l-.8464-.9926C71.8441,95.197,70.5688,93.278,72.3625,91.9406Z"/><path class="cls-18" d="M103.165,115.8514c-.5676-1.9432-1.9919-2.4449-3.8182-2.27.5328-1.3515,2.0419-1.0185,2.9553-1.7134A5.2219,5.2219,0,0,1,103.165,115.8514Z"/><path class="cls-19" d="M105.2519,70.9378c-3.2979,1.2981-6.5849,1.7578-9.84-.1295C98.71,69.5222,101.9707,70.9916,105.2519,70.9378Z"/><path class="cls-20" d="M112.3685,74.8535l-.872-4.9759.4887.0776a5.1491,5.1491,0,0,1,1.3036,3.8832C113.7005,74.8283,113.2192,75.0084,112.3685,74.8535Z"/><path class="cls-21" d="M111.9852,69.9552l-.4888-.0776c-1.5626-.46-2.8011.6937-4.24.8521C108.3716,67.656,110.1709,68.76,111.9852,69.9552Z"/><path class="cls-22" d="M113.3205,81.8308q-.1519-2.4615-.304-4.923a.6489.6489,0,0,1,1.0494.0741C113.878,78.6075,114.9476,80.4265,113.3205,81.8308Z"/><path class="cls-23" d="M114.0659,76.9819l-1.0494-.0741a1.8559,1.8559,0,0,1-.648-2.0544q.4593-.5071.9195-1.0147C114.2846,74.7041,114.2357,75.8281,114.0659,76.9819Z"/><path class="cls-24" d="M77.329,66.9365q-.9561,1.4485-1.912,2.8965C74.4149,67.7842,75.3549,67.0189,77.329,66.9365Z"/><path class="cls-25" d="M72.4691,85.754q-.0453.4962-.0908.9921c-2.008-.3263-1.7416,1.9759-2.9324,2.6485C67.986,84.835,67.986,84.835,72.4691,85.754Z"/><path class="cls-26" d="M114.2974,87.6885c-.1338-.6622-1.4043-1.234-.16-2.0066,3.8737-.7667,3.3158,1.8779,3.2115,4.1737-2.4662,1.1715-.5589-2.3285-2.189-2.0507Q114.7259,87.7678,114.2974,87.6885Z"/><path class="cls-27" d="M96.8793,76.1874c3.38-1.98,6.7558-2.7376,10.1178,0Z"/><path class="cls-28" d="M78.6376,76.042c3.4335-1.75,6.86-2.7039,10.26,0Z"/><path class="cls-29" d="M81.9218,82.8416c1.5822-.8686-1.7988-4.1349,1.8168-3.7175,1.704.1967,1.9712,1.9327,1.8383,3.4651-.1257,1.45-.852,2.5164-2.4353,2.422C81.7384,84.9275,81.0853,84.2037,81.9218,82.8416Z"/><path class="cls-30" d="M102.2873,85.0418c-.9577-.1872-2.4-1.2707-1.777-1.55,2.2683-1.0189-.1637-4.0559,2.0271-4.3857,1.4736-.2218,2.0931,1.4484,2.1457,2.8126C104.744,83.4981,104.2572,84.8712,102.2873,85.0418Z"/><path class="cls-31" d="M90.1709,108.7441a4.3288,4.3288,0,0,1,5.3262.0793C93.4687,109.9133,92.1458,109.9719,90.1709,108.7441Z"/><path class="cls-32" d="M95.5856,101.2131a12.2328,12.2328,0,0,1-7.2354.073A13.3788,13.3788,0,0,1,95.5856,101.2131Z"/><path class="cls-33" d="M95.2446,115.6963c-1.95,1.6692-3.9117,1.3528-5.8792.0349Z"/><path class="cls-34" d="M95.0961,94.0571c-1.614,1.1431-2.8538.6063-4.5747.6221C92.2146,93.31,93.4559,93.9187,95.0961,94.0571Z"/><path class="cls-7" d="M53.8576,151.1809l0,2.6024s17.64,12.5579,37.7941,12c23.8624-.66,33.24-6.3362,40.3961-9.7637l-.0266-2.1671s-24.2961,9.5088-40.4246,9.0684S53.8576,151.1809,53.8576,151.1809Z"/><path class="cls-35" d="M118.1405,161.9317v-7.8686l1.1268-.0611c0,2.5531,0,5.0147,0,7.5678C118.892,161.66,118.5163,161.8415,118.1405,161.9317Z"/><path class="cls-36" d="M65.3912,160.0784v-5.889c2.568,1.8953,1.724,4.4022,1.9535,6.7169C66.5641,160.5967,66.033,160.3858,65.3912,160.0784Z"/></svg>